<svg width="24" height="24" viewBox="0 0 24 24" fill="none" xmlns="http://www.w3.org/2000/svg">
<path d="M8.40001 13.2001C8.71827 13.2001 9.02349 13.0737 9.24853 12.8486C9.47358 12.6236 9.60001 12.3184 9.60001 12.0001C9.60001 11.6818 9.47358 11.3766 9.24853 11.1516C9.02349 10.9265 8.71827 10.8001 8.40001 10.8001C8.08175 10.8001 7.77652 10.9265 7.55148 11.1516C7.32643 11.3766 7.20001 11.6818 7.20001 12.0001C7.20001 12.3184 7.32643 12.6236 7.55148 12.8486C7.77652 13.0737 8.08175 13.2001 8.40001 13.2001ZM9.60001 15.6001C9.60001 15.9184 9.47358 16.2236 9.24853 16.4486C9.02349 16.6737 8.71827 16.8001 8.40001 16.8001C8.08175 16.8001 7.77652 16.6737 7.55148 16.4486C7.32643 16.2236 7.20001 15.9184 7.20001 15.6001C7.20001 15.2818 7.32643 14.9766 7.55148 14.7516C7.77652 14.5265 8.08175 14.4001 8.40001 14.4001C8.71827 14.4001 9.02349 14.5265 9.24853 14.7516C9.47358 14.9766 9.60001 15.2818 9.60001 15.6001ZM12 13.2001C12.3183 13.2001 12.6235 13.0737 12.8485 12.8486C13.0736 12.6236 13.2 12.3184 13.2 12.0001C13.2 11.6818 13.0736 11.3766 12.8485 11.1516C12.6235 10.9265 12.3183 10.8001 12 10.8001C11.6817 10.8001 11.3765 10.9265 11.1515 11.1516C10.9264 11.3766 10.8 11.6818 10.8 12.0001C10.8 12.3184 10.9264 12.6236 11.1515 12.8486C11.3765 13.0737 11.6817 13.2001 12 13.2001ZM13.2 15.6001C13.2 15.9184 13.0736 16.2236 12.8485 16.4486C12.6235 16.6737 12.3183 16.8001 12 16.8001C11.6817 16.8001 11.3765 16.6737 11.1515 16.4486C10.9264 16.2236 10.8 15.9184 10.8 15.6001C10.8 15.2818 10.9264 14.9766 11.1515 14.7516C11.3765 14.5265 11.6817 14.4001 12 14.4001C12.3183 14.4001 12.6235 14.5265 12.8485 14.7516C13.0736 14.9766 13.2 15.2818 13.2 15.6001ZM15.6 13.2001C15.9183 13.2001 16.2235 13.0737 16.4485 12.8486C16.6736 12.6236 16.8 12.3184 16.8 12.0001C16.8 11.6818 16.6736 11.3766 16.4485 11.1516C16.2235 10.9265 15.9183 10.8001 15.6 10.8001C15.2817 10.8001 14.9765 10.9265 14.7515 11.1516C14.5264 11.3766 14.4 11.6818 14.4 12.0001C14.4 12.3184 14.5264 12.6236 14.7515 12.8486C14.9765 13.0737 15.2817 13.2001 15.6 13.2001ZM20.4 6.6001C20.4 5.80445 20.0839 5.04139 19.5213 4.47878C18.9587 3.91617 18.1957 3.6001 17.4 3.6001H6.60001C5.80436 3.6001 5.04129 3.91617 4.47869 4.47878C3.91608 5.04139 3.60001 5.80445 3.60001 6.6001V17.4001C3.60001 18.1957 3.91608 18.9588 4.47869 19.5214C5.04129 20.084 5.80436 20.4001 6.60001 20.4001H17.4C18.1957 20.4001 18.9587 20.084 19.5213 19.5214C20.0839 18.9588 20.4 18.1957 20.4 17.4001V6.6001ZM4.80001 8.4001H19.2V17.4001C19.2 17.8775 19.0104 18.3353 18.6728 18.6729C18.3352 19.0105 17.8774 19.2001 17.4 19.2001H6.60001C6.12262 19.2001 5.66478 19.0105 5.32721 18.6729C4.98965 18.3353 4.80001 17.8775 4.80001 17.4001V8.4001ZM6.60001 4.8001H17.4C17.8774 4.8001 18.3352 4.98974 18.6728 5.32731C19.0104 5.66487 19.2 6.12271 19.2 6.6001V7.2001H4.80001V6.6001C4.80001 6.12271 4.98965 5.66487 5.32721 5.32731C5.66478 4.98974 6.12262 4.8001 6.60001 4.8001Z" fill="white"/>
</svg>
