<svg width="24" height="24" viewBox="0 0 24 24" fill="none" xmlns="http://www.w3.org/2000/svg">
<path d="M10.7931 2.99557C11.1354 2.72095 11.5612 2.57129 12 2.57129C12.4388 2.57129 12.8646 2.72095 13.2069 2.99557L19.8497 8.32529C20.075 8.506 20.2568 8.73498 20.3817 8.99534C20.5066 9.25571 20.5714 9.5408 20.5714 9.82957V19.4981C20.5714 20.0096 20.3682 20.5002 20.0066 20.8619C19.6449 21.2235 19.1543 21.4267 18.6429 21.4267H16.0714C15.5599 21.4267 15.0694 21.2235 14.7077 20.8619C14.346 20.5002 14.1429 20.0096 14.1429 19.4981V14.3553C14.1429 14.1848 14.0751 14.0213 13.9546 13.9007C13.834 13.7802 13.6705 13.7124 13.5 13.7124H10.5C10.3295 13.7124 10.166 13.7802 10.0454 13.9007C9.92487 14.0213 9.85714 14.1848 9.85714 14.3553V19.4981C9.85714 20.0096 9.65396 20.5002 9.29228 20.8619C8.9306 21.2235 8.44006 21.4267 7.92857 21.4267H5.35714C4.8458 21.4267 4.35539 21.2236 3.99374 20.8622C3.63209 20.5007 3.4288 20.0103 3.42857 19.499V9.83043C3.42857 9.24586 3.69429 8.69214 4.15029 8.32614L10.7931 2.99643V2.99557ZM12.402 3.99843C12.2879 3.90703 12.1462 3.85723 12 3.85723C11.8538 3.85723 11.7121 3.90703 11.598 3.99843L4.95515 9.32814C4.88001 9.38835 4.81936 9.46467 4.77767 9.55146C4.73598 9.63825 4.71432 9.73329 4.71429 9.82957V19.4981C4.71429 19.8539 5.00229 20.141 5.35714 20.141H7.92857C8.09907 20.141 8.26258 20.0733 8.38314 19.9527C8.5037 19.8322 8.57143 19.6686 8.57143 19.4981V14.3553C8.57143 13.8438 8.77462 13.3533 9.1363 12.9916C9.49797 12.6299 9.98851 12.4267 10.5 12.4267H13.5C14.0115 12.4267 14.502 12.6299 14.8637 12.9916C15.2254 13.3533 15.4286 13.8438 15.4286 14.3553V19.4981C15.4286 19.8539 15.7166 20.141 16.0714 20.141H18.6429C18.8134 20.141 18.9769 20.0733 19.0974 19.9527C19.218 19.8322 19.2857 19.6686 19.2857 19.4981V9.82957C19.2858 9.73336 19.2643 9.63836 19.2227 9.55157C19.1812 9.46479 19.1207 9.38844 19.0457 9.32814L12.4029 3.99843H12.402Z" fill="white"/>
</svg>
