<svg width="16" height="16" viewBox="0 0 16 16" fill="none" xmlns="http://www.w3.org/2000/svg">
<path d="M14 4H2M14 6.66667H2M7.33333 9.33333H2M7.33333 12H2" stroke="white" stroke-linecap="round"/>
<path d="M12.5833 9.41223C13.686 10.0489 14.2367 10.3676 14.318 10.8262C14.3383 10.9411 14.3383 11.0587 14.318 11.1736C14.2373 11.6336 13.686 11.9516 12.5833 12.5876C11.4807 13.2242 10.93 13.5429 10.4913 13.3836C10.3817 13.3436 10.28 13.2847 10.1907 13.2096C9.83333 12.9096 9.83333 12.2736 9.83333 11.0002C9.83333 9.72689 9.83333 9.09023 10.1907 8.79089C10.28 8.71603 10.3818 8.65737 10.4913 8.61756C10.9293 8.45756 11.4807 8.77623 12.5833 9.41223Z" stroke="white"/>
</svg>
