<svg width="53" height="16" viewBox="0 0 53 16" fill="none" xmlns="http://www.w3.org/2000/svg">
<path d="M12.6816 0.722656V9.31641C12.6816 10.5143 12.4538 11.556 11.998 12.4414C11.5423 13.3203 10.8587 14.0007 9.94727 14.4824C9.03581 14.9577 7.89323 15.1953 6.51953 15.1953C4.55339 15.1953 3.05273 14.6908 2.01758 13.6816C0.982422 12.6725 0.464844 11.2467 0.464844 9.4043V0.722656H4.3418V9.10156C4.3418 10.1107 4.5306 10.8431 4.9082 11.2988C5.28581 11.7546 5.84245 11.9824 6.57812 11.9824C7.10547 11.9824 7.53516 11.8848 7.86719 11.6895C8.19922 11.4876 8.4401 11.1719 8.58984 10.7422C8.74609 10.3125 8.82422 9.75911 8.82422 9.08203V0.722656H12.6816ZM20.3574 0.722656C21.653 0.722656 22.7305 0.882161 23.5898 1.20117C24.4492 1.51367 25.0938 1.98242 25.5234 2.60742C25.9596 3.23242 26.1777 4.01042 26.1777 4.94141C26.1777 5.52083 26.0801 6.04818 25.8848 6.52344C25.6895 6.9987 25.4095 7.42513 25.0449 7.80273C24.6868 8.17383 24.2572 8.49935 23.7559 8.7793L27.916 15H23.541L20.5137 9.80469H19.5371V15H15.6797V0.722656H20.3574ZM20.2988 3.64258H19.5371V6.9043H20.2598C20.8522 6.9043 21.3372 6.77409 21.7148 6.51367C22.0924 6.25326 22.2812 5.78776 22.2812 5.11719C22.2812 4.65495 22.125 4.29362 21.8125 4.0332C21.5 3.77279 20.9954 3.64258 20.2988 3.64258ZM34.9473 6.64062H41.1094V14.3359C40.3737 14.5898 39.5306 14.7982 38.5801 14.9609C37.6296 15.1172 36.6335 15.1953 35.5918 15.1953C34.2181 15.1953 33.0137 14.9284 31.9785 14.3945C30.9434 13.8607 30.1361 13.0501 29.5566 11.9629C28.9772 10.8691 28.6875 9.48893 28.6875 7.82227C28.6875 6.32487 28.974 5.03255 29.5469 3.94531C30.1198 2.85156 30.9629 2.00846 32.0762 1.41602C33.196 0.817057 34.5664 0.517578 36.1875 0.517578C37.0794 0.517578 37.9258 0.602214 38.7266 0.771484C39.5273 0.940755 40.224 1.1556 40.8164 1.41602L39.5957 4.44336C39.0814 4.18945 38.5475 4.00065 37.9941 3.87695C37.4408 3.74674 36.8451 3.68164 36.207 3.68164C35.3542 3.68164 34.6673 3.8737 34.1465 4.25781C33.6322 4.64193 33.2578 5.15625 33.0234 5.80078C32.7891 6.4388 32.6719 7.14518 32.6719 7.91992C32.6719 8.80534 32.7956 9.55404 33.043 10.166C33.2969 10.7715 33.6647 11.2337 34.1465 11.5527C34.6348 11.8652 35.224 12.0215 35.9141 12.0215C36.1419 12.0215 36.4186 12.0052 36.7441 11.9727C37.0762 11.9401 37.3268 11.901 37.4961 11.8555V9.61914H34.9473V6.64062ZM52.4961 15H44.0195V0.722656H52.4961V3.81836H47.877V6.06445H52.1543V9.16016H47.877V11.8555H52.4961V15Z" fill="#F5F5F5"/>
</svg>
